<?xml version="1.0" standalone="no"?>
<!DOCTYPE svg PUBLIC "-//W3C//DTD SVG 20010904//EN"
 "http://www.w3.org/TR/2001/REC-SVG-20010904/DTD/svg10.dtd">
<svg version="1.0" xmlns="http://www.w3.org/2000/svg"
 width="19.000000pt" height="19.000000pt" viewBox="0 0 19.000000 19.000000"
 preserveAspectRatio="xMidYMid meet">
<metadata>
Created by potrace 1.15, written by Peter Selinger 2001-2017
</metadata>
<g transform="translate(0.000000,19.000000) scale(0.100000,-0.100000)"
fill="#000000" stroke="none">
<path d="M64 155 c-4 -9 -3 -19 1 -23 4 -4 10 -1 12 6 3 6 20 12 39 12 l34 0
0 -60 0 -60 -34 0 c-19 0 -36 6 -39 13 -2 6 -8 9 -12 5 -4 -4 -5 -14 -1 -23 4
-12 17 -15 53 -13 l48 3 0 75 0 75 -48 3 c-36 2 -49 -1 -53 -13z"/>
<path d="M30 106 c-11 -15 -11 -19 3 -34 11 -10 17 -12 17 -4 0 7 13 12 30 12
17 0 30 5 30 10 0 6 -13 10 -29 10 -16 0 -31 5 -33 11 -2 7 -9 5 -18 -5z"/>
</g>
</svg>
